<svg id="visual" viewBox="0 0 900 600" width="900" height="600" xmlns="http://www.w3.org/2000/svg" xmlns:xlink="http://www.w3.org/1999/xlink" version="1.1"><g transform="translate(438.6497808291883 341.91552561127486)"><path d="M178.5 -214.5C237.4 -163.3 295.5 -112.8 311.8 -50.5C328.1 11.8 302.6 85.9 259.8 140.4C216.9 195 156.7 230 100.5 230.9C44.2 231.8 -8 198.6 -44.4 166.1C-80.7 133.7 -101.3 102 -152.8 63.6C-204.3 25.2 -286.8 -20 -293.6 -64C-300.4 -108 -231.5 -150.9 -170 -201.7C-108.4 -252.5 -54.2 -311.3 2.8 -314.6C59.8 -317.9 119.6 -265.8 178.5 -214.5" fill="#CCCCCC"></path></g></svg>