<svg version="1.2" xmlns="http://www.w3.org/2000/svg" viewBox="0 0 410 218" width="410" height="218">
    <path fill-rule="evenodd" d="m241.1 11.5c21.6 0.8 41 10.1 55.6 24.9 10.9 1.2 20.8 5.2 29.1 11.3q3.3-0.3 6.8-0.2c17.6 0.7 32.6 11 40.2 25.9 13.9 5.4 21.6 11.1 21.4 16.9-0.2 5-6.1 9.5-16.7 13.3-2.3 14.5-10.7 26.6-22.5 33.8q0.7 5 0.5 10.3c-1.4 34.2-29.5 60.7-63.1 59.4-11-0.4-21.3-3.8-30-9.4-9 3.1-18.6 4.5-28.5 4.1-20-0.7-38.2-8.8-52.4-21.8-8.2 2.5-16.9 3.8-26 3.6-35.1-0.6-64.6-22.6-75.7-52.9-13.1-5.7-22.7-17.3-25.6-31.2-27.3-7-43.5-15.3-43.2-23.7 0.4-9.7 22.8-17.6 58.7-22.5 7.3-9.7 22.4-16.3 39.8-16.3q1.2 0 2.4 0c13.3-8.5 29.4-13.3 46.6-13 5.7 0.1 11.2 0.8 16.6 1.9 4.3-4.2 9.4-6.7 15-6.9 3.4-0.1 6.6 0.6 9.6 2.1 12.5-6.7 26.6-10.2 41.4-9.6z"/>
</svg>